# Blender 4.3.2
# www.blender.org
mtllib Sketchfab_2023_06_08_03_36_18.mtl
o gold_pile
v -0.845895 1.028526 0.764916
v 0.813063 1.028526 0.760705
v -0.858530 1.028526 -0.763488
v 0.682509 1.028526 -0.805602
v -0.962413 1.158230 -0.006138
v -0.018014 1.158229 0.903646
v 0.892760 1.158229 -0.017017
v -0.051640 1.158229 -0.926802
v -0.068685 1.584504 -0.034541
v -2.140331 -0.026501 1.995279
v 2.183963 -0.026501 1.983243
v -2.176437 -0.026501 -1.955911
v 1.810859 -0.026501 -2.076267
v -2.821295 -0.026501 0.016675
v 0.051905 -0.026501 2.784564
v 2.822804 -0.026501 -0.016423
v -0.050397 -0.026501 -2.784312
v -1.885547 0.437299 0.008830
v -1.433677 0.437299 1.321777
v 1.188225 0.437299 -1.379990
v -0.046854 0.437299 -1.849829
v 0.021031 0.437299 1.845525
v -1.457637 0.437299 -1.300125
v 1.435806 0.437299 1.313790
v 1.859723 0.437299 -0.013133
v -0.518713 1.459705 -0.023314
v -0.048180 1.459705 0.429972
v -0.064934 1.459705 -0.482021
v -0.921566 1.120561 0.430230
v 0.457581 1.120561 0.850227
v 0.795444 1.120561 -0.465631
v -0.506929 1.120561 -0.860951
v -0.929792 1.120561 -0.436852
v -0.494500 1.120561 0.852969
v 0.880444 1.120561 0.426129
v 0.368379 1.120561 -0.888370
v 0.405599 1.459705 -0.028735
v -2.668474 -0.026501 1.089831
v 1.236767 -0.026501 2.573822
v 2.472899 -0.026501 -1.140354
v -1.200657 -0.026501 -2.549875
v -2.693298 -0.026501 -1.053473
v -1.163045 -0.026501 2.582096
v 2.729409 -0.026501 1.077419
v 0.967470 -0.026501 -2.632619
v -2.353421 0.177087 0.012752
v -1.093136 0.770897 0.997881
v 1.499542 0.177087 -1.728128
v -0.046124 0.786276 -1.384019
v 0.004572 0.786276 1.375651
v -1.111033 0.770897 -0.985626
v 1.075305 0.770897 0.991915
v 1.377698 0.786276 -0.012385
v -1.419249 0.786276 0.004017
v -1.787004 0.177087 1.658527
v 0.890370 0.770897 -1.045282
v -0.048626 0.177087 -2.317070
v 0.036468 0.177087 2.315044
v -1.817037 0.177087 -1.628018
v 1.809885 0.177087 1.648517
v 2.341264 0.177087 -0.014778
v 1.627537 0.437299 -0.758943
v -1.800611 0.437299 -0.701291
v 1.797749 0.437299 0.712711
v 0.807273 0.437299 1.705682
v -0.810135 0.437299 -1.694263
v -0.785177 0.437299 1.711173
v 0.628575 0.437299 -1.749170
v -1.784139 0.437299 0.720947
v -0.495061 1.366015 0.416761
v 0.370599 1.366015 -0.464517
v -0.501471 1.366015 -0.449453
v 0.417291 1.366015 0.414645
v -2.226307 0.177087 0.905389
v 0.798023 0.177087 -2.190895
v -0.974111 0.177087 2.146635
v -1.005396 0.177087 -2.122069
v 1.022020 0.177087 2.139752
v 2.263579 0.177087 0.895065
v -2.246954 0.177087 -0.877382
v 2.050218 0.177087 -0.949649
v 1.207638 0.780941 -0.578767
v -1.357988 0.780941 -0.535709
v 1.334762 0.780941 0.539651
v 0.602024 0.780941 1.274252
v -0.625251 0.780941 -1.270311
v -0.606611 0.780941 1.278353
v 0.468563 0.780941 -1.311319
v -1.345686 0.780941 0.545802
vn -0.4215 0.8032 0.4210
vn 0.4111 0.8153 0.4077
vn -0.4307 0.7963 -0.4248
vn 0.4338 0.7845 -0.4432
vn -0.5768 0.8169 0.0044
vn 0.0011 0.8264 0.5631
vn 0.5548 0.8305 -0.0493
vn -0.0122 0.8147 -0.5797
vn -0.0049 1.0000 -0.0059
vn -0.2737 0.9229 0.2708
vn 0.2675 0.9265 0.2646
vn -0.2762 0.9224 -0.2699
vn 0.2785 0.9166 -0.2870
vn -0.3990 0.9170 0.0045
vn 0.0019 0.9175 0.3978
vn 0.3889 0.9202 -0.0436
vn -0.0108 0.9167 -0.3994
vn -0.5429 0.8398 0.0061
vn -0.3744 0.8501 0.3704
vn 0.3789 0.8390 -0.3906
vn -0.0146 0.8393 -0.5434
vn 0.0026 0.8410 0.5410
vn -0.3779 0.8490 -0.3692
vn 0.3672 0.8564 0.3630
vn 0.5304 0.8457 -0.0590
vn -0.3938 0.9192 0.0009
vn -0.0019 0.9251 0.3796
vn -0.0075 0.9175 -0.3977
vn -0.5212 0.8157 0.2511
vn 0.2490 0.8260 0.5056
vn 0.5139 0.8042 -0.2987
vn -0.2696 0.8055 -0.5278
vn -0.5286 0.8117 -0.2487
vn -0.2512 0.8172 0.5187
vn 0.5022 0.8346 0.2262
vn 0.2639 0.8072 -0.5280
vn 0.3750 0.9267 -0.0240
vn -0.3702 0.9201 0.1280
vn 0.1385 0.9212 0.3636
vn 0.3605 0.9155 -0.1784
vn -0.1448 0.9175 -0.3705
vn -0.3716 0.9203 -0.1222
vn -0.1358 0.9188 0.3706
vn 0.3595 0.9260 0.1155
vn 0.1413 0.9186 -0.3692
vn -0.4430 0.8965 0.0050
vn -0.4234 0.8028 0.4198
vn 0.3091 0.8961 -0.3186
vn -0.0156 0.7921 -0.6101
vn 0.0026 0.7976 0.6031
vn -0.4289 0.7998 -0.4200
vn 0.4152 0.8118 0.4106
vn 0.5929 0.8028 -0.0632
vn -0.6087 0.7934 0.0063
vn -0.3044 0.9037 0.3011
vn 0.4301 0.7869 -0.4425
vn -0.0120 0.8962 -0.4434
vn 0.0021 0.8972 0.4417
vn -0.3072 0.9031 -0.3001
vn 0.2978 0.9080 0.2945
vn 0.4322 0.9005 -0.0484
vn 0.4897 0.8374 -0.2427
vn -0.5068 0.8456 -0.1678
vn 0.4925 0.8556 0.1593
vn 0.1898 0.8474 0.4959
vn -0.1980 0.8406 -0.5042
vn -0.1857 0.8432 0.5045
vn 0.1933 0.8425 -0.5029
vn -0.5048 0.8452 0.1756
vn -0.3328 0.8811 0.3361
vn 0.3355 0.8733 -0.3532
vn -0.3481 0.8728 -0.3421
vn 0.3199 0.8939 0.3141
vn -0.4114 0.9003 0.1423
vn 0.1569 0.8985 -0.4101
vn -0.1509 0.8987 0.4117
vn -0.1608 0.8971 -0.4115
vn 0.1540 0.9016 0.4041
vn 0.4001 0.9074 0.1286
vn -0.4130 0.9006 -0.1358
vn 0.4001 0.8948 -0.1980
vn 0.5505 0.7879 -0.2759
vn -0.5694 0.7979 -0.1977
vn 0.5516 0.8133 0.1852
vn 0.2175 0.8029 0.5550
vn -0.2294 0.7910 -0.5671
vn -0.2139 0.7972 0.5646
vn 0.2245 0.7934 -0.5658
vn -0.5663 0.7982 0.2052
vt 0.554572 0.501375
vt 0.672740 0.878769
vt 0.309081 0.984647
vt 0.173941 0.614491
vt 0.801364 1.290856
vt 0.419183 1.383076
vt 0.103051 1.427492
vt -0.071644 1.133170
vt -0.251881 0.736952
vt 0.427085 0.113985
vt 0.796427 0.024994
vt 0.921851 0.379468
vt 0.281585 -0.316755
vt 0.693174 -0.360904
vt 1.026414 -0.371833
vt 1.177459 -0.110159
vt 1.324225 0.238720
vt 1.400710 0.647010
vt 1.020301 0.750436
vt 1.433968 0.987992
vt 1.159690 1.139355
vt 0.060392 0.226265
vt -0.343277 0.313580
vt -0.379545 -0.027964
vt -0.095715 -0.179603
vt -0.276057 2.256022
vt 0.412630 2.404505
vt 0.375530 2.950597
vt -0.514574 2.783798
vt 1.123409 2.276924
vt 1.292674 2.788036
vt 1.507148 3.424471
vt 0.333987 3.533795
vt -0.839174 3.643117
vt 2.302877 -0.096845
vt 1.990940 -0.711060
vt 2.408702 -1.059364
vt 2.817965 -0.281655
vt 1.458785 -1.128756
vt 1.736229 -1.601858
vt 2.210664 -2.228436
vt 2.856636 -1.433958
vt 3.502606 -0.639480
vt -1.251001 1.039012
vt -0.860915 1.762148
vt -1.262449 2.127677
vt -1.777829 1.197498
vt -1.690175 2.526206
vt -2.541175 1.409293
vt 2.225607 1.430951
vt 2.395718 0.682334
vt 2.931169 0.735496
vt 2.729573 1.715677
vt 3.502607 0.793928
vt 3.502606 2.227336
vt -1.191330 -0.484969
vt -1.367753 0.244121
vt -1.915882 0.171350
vt -1.704373 -0.776066
vt -2.504696 0.087040
vt -2.468215 -1.235213
vt -0.058790 -1.328098
vt -0.731631 -1.029767
vt -1.100164 -1.466710
vt -0.240810 -1.863665
vt -1.499731 -1.939166
vt -0.531245 -2.643117
vt 1.768356 1.960800
vt 2.123338 2.379280
vt 2.504878 2.825904
vt 0.726155 -1.348838
vt 0.778610 -1.876562
vt 0.839710 -2.435777
vt 0.683427 -0.827046
vt 1.205714 -0.679548
vt 0.115691 -0.808584
vt 1.425506 1.542570
vt 0.955897 1.768625
vt 1.758719 1.172660
vt -0.376038 -0.597079
vt -0.713613 -0.217127
vt -0.827995 0.305730
vt -0.738224 0.882472
vt 1.868425 0.638260
vt 1.796569 0.075422
vt -0.460231 1.409333
vt -0.051934 1.770004
vt 1.575290 -0.372572
vt 0.440670 1.865308
s 1
usemtl siimon_gold_pile_seamless_1
f 9/1/9 26/2/26 70/3/70 27/4/27
f 26/2/26 5/5/5 29/6/29 70/3/70
f 70/3/70 29/6/29 1/7/1 34/8/34
f 27/4/27 70/3/70 34/8/34 6/9/6
f 9/1/9 37/10/37 71/11/71 28/12/28
f 37/10/37 7/13/7 31/14/31 71/11/71
f 71/11/71 31/14/31 4/15/4 36/16/36
f 28/12/28 71/11/71 36/16/36 8/17/8
f 8/17/8 32/18/32 72/19/72 28/12/28
f 32/18/32 3/20/3 33/21/33 72/19/72
f 72/19/72 33/21/33 5/5/5 26/2/26
f 28/12/28 72/19/72 26/2/26 9/1/9
f 9/1/9 27/4/27 73/22/73 37/10/37
f 27/4/27 6/9/6 30/23/30 73/22/73
f 73/22/73 30/23/30 2/24/2 35/25/35
f 37/10/37 73/22/73 35/25/35 7/13/7
f 19/26/19 69/27/69 74/28/74 55/29/55
f 69/27/69 18/30/18 46/31/46 74/28/74
f 74/28/74 46/31/46 14/32/14 38/33/38
f 55/29/55 74/28/74 38/33/38 10/34/10
f 21/35/21 68/36/68 75/37/75 57/38/57
f 68/36/68 20/39/20 48/40/48 75/37/75
f 75/37/75 48/40/48 13/41/13 45/42/45
f 57/38/57 75/37/75 45/42/45 17/43/17
f 22/44/22 67/45/67 76/46/76 58/47/58
f 67/45/67 19/26/19 55/29/55 76/46/76
f 76/46/76 55/29/55 10/34/10 43/48/43
f 58/47/58 76/46/76 43/48/43 15/49/15
f 23/50/23 66/51/66 77/52/77 59/53/59
f 66/51/66 21/35/21 57/38/57 77/52/77
f 77/52/77 57/38/57 17/43/17 41/54/41
f 59/53/59 77/52/77 41/54/41 12/55/12
f 24/56/24 65/57/65 78/58/78 60/59/60
f 65/57/65 22/44/22 58/47/58 78/58/78
f 78/58/78 58/47/58 15/49/15 39/60/39
f 60/59/60 78/58/78 39/60/39 11/61/11
f 25/62/25 64/63/64 79/64/79 61/65/61
f 64/63/64 24/56/24 60/59/60 79/64/79
f 79/64/79 60/59/60 11/61/11 44/66/44
f 61/65/61 79/64/79 44/66/44 16/67/16
f 18/30/18 63/68/63 80/69/80 46/31/46
f 63/68/63 23/50/23 59/53/59 80/69/80
f 80/69/80 59/53/59 12/55/12 42/70/42
f 46/31/46 80/69/80 42/70/42 14/32/14
f 20/39/20 62/71/62 81/72/81 48/40/48
f 62/71/62 25/62/25 61/65/61 81/72/81
f 81/72/81 61/65/61 16/67/16 40/73/40
f 48/40/48 81/72/81 40/73/40 13/41/13
f 4/15/4 31/14/31 82/74/82 56/75/56
f 31/14/31 7/13/7 53/76/53 82/74/82
f 82/74/82 53/76/53 25/62/25 62/71/62
f 56/75/56 82/74/82 62/71/62 20/39/20
f 5/5/5 33/21/33 83/77/83 54/78/54
f 33/21/33 3/20/3 51/79/51 83/77/83
f 83/77/83 51/79/51 23/50/23 63/68/63
f 54/78/54 83/77/83 63/68/63 18/30/18
f 7/13/7 35/25/35 84/80/84 53/76/53
f 35/25/35 2/24/2 52/81/52 84/80/84
f 84/80/84 52/81/52 24/56/24 64/63/64
f 53/76/53 84/80/84 64/63/64 25/62/25
f 2/24/2 30/23/30 85/82/85 52/81/52
f 30/23/30 6/9/6 50/83/50 85/82/85
f 85/82/85 50/83/50 22/44/22 65/57/65
f 52/81/52 85/82/85 65/57/65 24/56/24
f 3/20/3 32/18/32 86/84/86 51/79/51
f 32/18/32 8/17/8 49/85/49 86/84/86
f 86/84/86 49/85/49 21/35/21 66/51/66
f 51/79/51 86/84/86 66/51/66 23/50/23
f 6/9/6 34/8/34 87/86/87 50/83/50
f 34/8/34 1/7/1 47/87/47 87/86/87
f 87/86/87 47/87/47 19/26/19 67/45/67
f 50/83/50 87/86/87 67/45/67 22/44/22
f 8/17/8 36/16/36 88/88/88 49/85/49
f 36/16/36 4/15/4 56/75/56 88/88/88
f 88/88/88 56/75/56 20/39/20 68/36/68
f 49/85/49 88/88/88 68/36/68 21/35/21
f 1/7/1 29/6/29 89/89/89 47/87/47
f 29/6/29 5/5/5 54/78/54 89/89/89
f 89/89/89 54/78/54 18/30/18 69/27/69
f 47/87/47 89/89/89 69/27/69 19/26/19
